# xmcd
#
# Track frame offsets: 
#        150
#        22420
#        35840
#        52075
#
# Disc length: 1128 seconds
#
# Revision: 3
# Processed by: cddbd v1.5.2PL0 Copyright (c) Steve Scherf et al.
# Submitted via: ExactAudioCopyFreeDBPlugin 1.0
#
DISCID=3a046604
DTITLE=Jan Hammer / Tubbs And Valerie (CDEP) (1987 MCA Records UK DMCA
DTITLE= 1200)
DYEAR=1987
DGENRE=Pop
TTITLE0=Tubbs And Valerie (Extended Version)
TTITLE1=Rico's Blues
TTITLE2=Tubbs And Valerie
TTITLE3=Crockett's Theme (Instrumental Extended 12" Mix)
EXTD=
EXTT0=
EXTT1=
EXTT2=
EXTT3=
PLAYORDER=
